<svg width="7" height="7" viewBox="0 0 7 7" fill="none" xmlns="http://www.w3.org/2000/svg">
<path d="M3.35734 0.439057C3.40224 0.300861 3.59776 0.300861 3.64266 0.439058L4.25212 2.31479C4.2722 2.3766 4.3298 2.41844 4.39478 2.41844H6.36705C6.51235 2.41844 6.57277 2.60438 6.45521 2.68979L4.85962 3.84906C4.80704 3.88726 4.78505 3.95496 4.80513 4.01677L5.41459 5.8925C5.45949 6.0307 5.30132 6.14562 5.18376 6.06021L3.58817 4.90094C3.53559 4.86274 3.46441 4.86274 3.41183 4.90094L1.81624 6.06021C1.69868 6.14562 1.54051 6.0307 1.58541 5.8925L2.19487 4.01677C2.21495 3.95496 2.19296 3.88726 2.14038 3.84906L0.544787 2.68979C0.42723 2.60438 0.487646 2.41844 0.632955 2.41844H2.60522C2.6702 2.41844 2.7278 2.3766 2.74788 2.31479L3.35734 0.439057Z" fill="white"/>
</svg>
